<svg width="30" height="30" viewBox="0 0 30 30" fill="none" xmlns="http://www.w3.org/2000/svg">
<path d="M29.3848 23.79L18.0103 2.886C17.2723 1.5165 16.1683 0.75 14.9833 0.75C13.7983 0.75 12.7108 1.5315 11.9593 2.901L0.61328 23.7915C-0.12172 25.143 -0.20272 26.529 0.40628 27.5865C1.01378 28.647 2.23028 29.25 3.73478 29.25H26.2648C27.7693 29.25 28.9858 28.647 29.5948 27.588C30.2023 26.529 30.1213 25.1595 29.3848 23.7915V23.79ZM14.9998 7.2855C15.5923 7.2855 16.0723 7.7745 16.0723 8.3775V18.252C16.0723 18.855 15.5923 19.344 14.9998 19.344C14.8576 19.3428 14.7171 19.3136 14.5862 19.2581C14.4554 19.2026 14.3367 19.1218 14.2371 19.0204C14.1375 18.9189 14.0589 18.7989 14.0057 18.667C13.9525 18.5352 13.9259 18.3942 13.9273 18.252V8.376C13.9273 7.7895 14.4073 7.2855 14.9998 7.2855ZM14.9998 24.7215C14.0713 24.7215 13.3348 23.9565 13.3348 23.0115C13.3348 22.0665 14.0878 21.3 14.9998 21.3C15.9283 21.3 16.6648 22.065 16.6648 23.01C16.6648 23.955 15.9118 24.7215 14.9998 24.7215Z" fill="#E8505B"/>
</svg>
