<svg width="26" height="23" viewBox="0 0 26 23" fill="none" xmlns="http://www.w3.org/2000/svg">
<g clip-path="url(#clip0_2145_2996)">
<path d="M23.8382 2.11225C22.5306 0.804666 20.7201 0 18.8091 0C16.2945 0 14.1822 1.10642 12.8747 3.0175C11.6677 1.10642 9.55541 0 7.04083 0C5.12974 0 3.31925 0.704082 2.01166 2.11225C0.704083 3.41983 0 5.23033 0 7.04083C0 10.4607 2.11225 14.0817 6.33674 17.7026C8.24782 19.312 10.3601 20.8207 12.5729 22.0277C12.6735 22.1283 12.7741 22.1283 12.8747 22.1283C12.9752 22.1283 13.0758 22.1283 13.1764 22.0277C15.3892 20.8207 17.5015 19.312 19.4126 17.7026C23.6371 14.0817 25.7493 10.4607 25.7493 7.04083C25.9505 5.23033 25.1458 3.41983 23.8382 2.11225Z" fill="#2D9CDB"/>
</g>
<defs>
<clipPath id="clip0_2145_2996">
<rect width="26" height="22.1705" fill="white"/>
</clipPath>
</defs>
</svg>
