<svg width="30" height="30" viewBox="0 0 30 30" fill="none" xmlns="http://www.w3.org/2000/svg">
<path d="M26.7074 26.9619L26.7069 26.961C25.4604 24.8376 23.6839 23.0744 21.5512 21.844C19.4185 20.6136 17.0028 19.9582 14.5407 19.942L14.3897 19.941V20.092V25.6476C14.3889 25.8006 14.3428 25.95 14.2572 26.077C14.1716 26.204 14.0503 26.3029 13.9086 26.3611L13.9075 26.3616C13.7661 26.421 13.6104 26.4372 13.4599 26.4082C13.3094 26.3793 13.1709 26.3064 13.0618 26.1988C13.0618 26.1988 13.0617 26.1987 13.0616 26.1986L1.95053 15.0875L1.95009 15.0871C1.87736 15.0149 1.81963 14.9291 1.78024 14.8345L1.64219 14.8921L1.78024 14.8345C1.74084 14.74 1.72056 14.6386 1.72056 14.5361C1.72056 14.4337 1.74084 14.3323 1.78024 14.2377L1.64219 14.1802L1.78024 14.2377C1.81963 14.1431 1.87736 14.0573 1.95009 13.9852L1.95053 13.9847L13.0616 2.87363C13.0617 2.87353 13.0618 2.87342 13.0619 2.87332C13.171 2.76582 13.3095 2.69299 13.4599 2.66401C13.6104 2.63501 13.7661 2.65125 13.9075 2.71067L13.9075 2.71068L13.9086 2.71115C14.0503 2.76936 14.1716 2.86822 14.2572 2.99527C14.3428 3.12221 14.3889 3.27162 14.3897 3.42469V9.08207V9.21404L14.5206 9.23085C18.3155 9.71827 21.8037 11.5689 24.3351 14.4378C26.8664 17.3066 28.2682 20.9979 28.2795 24.8237C28.2773 25.4366 28.2375 26.0488 28.1603 26.6569L28.1602 26.6579C28.1408 26.8193 28.0712 26.9706 27.9612 27.0904C27.8521 27.2091 27.7087 27.2909 27.551 27.3244L27.3806 27.35C27.2459 27.3502 27.1134 27.3153 26.9962 27.2487C26.8761 27.1805 26.7764 27.0815 26.7074 26.9619ZM13.5429 10.6827C13.3498 10.665 13.1703 10.5756 13.0398 10.4322C12.9091 10.2886 12.837 10.1011 12.8377 9.90681V9.9062V5.65593V5.2938L12.5817 5.54986L3.70148 14.4301L3.59542 14.5361L3.70148 14.6422L12.5817 23.5224L12.8377 23.7784V23.4163V19.166C12.8377 18.9602 12.9195 18.7629 13.065 18.6173C13.2105 18.4718 13.4079 18.3901 13.6137 18.3901H14.0767H14.1138L13.5429 10.6827Z" fill="#2D9CDB" stroke="white" stroke-width="0.3"/>
</svg>